<svg xmlns="http://www.w3.org/2000/svg" width="41.075" height="41.075" viewBox="0 0 41.075 41.075">
  <g id="Group_16073" data-name="Group 16073" transform="translate(-168.25 -266.25)">
    <path id="Path_1197" data-name="Path 1197" d="M33.325,6.788A20.538,20.538,0,1,0,12.788,27.325,20.538,20.538,0,0,0,33.325,6.788ZM10.412,17.662a1.325,1.325,0,0,1-1.874,0L-.074,9.05a1.325,1.325,0,0,1,0-1.874L1.8,5.3a1.325,1.325,0,0,1,1.874,0l5.8,5.8L21.9-1.323a1.325,1.325,0,0,1,1.874,0L25.65.551a1.325,1.325,0,0,1,0,1.874Z" transform="translate(176 280)" fill="#14c3a0"/>
  </g>
</svg>
