<svg xmlns="http://www.w3.org/2000/svg" width="24.585" height="22.946" viewBox="0 0 24.585 22.946">
  <g id="Group_16181" data-name="Group 16181" transform="translate(0 -7.267)">
    <path id="Path_1151" data-name="Path 1151" d="M21.487,24.946a.82.82,0,0,1-.508-.18l-5.925-4.737H3.458A2.458,2.458,0,0,1,1,17.57V4.458A2.458,2.458,0,0,1,3.458,2H23.126a2.458,2.458,0,0,1,2.458,2.458V17.57a2.458,2.458,0,0,1-2.458,2.458h-.819v4.1a.819.819,0,0,1-.467.738.746.746,0,0,1-.352.082ZM3.458,3.639a.819.819,0,0,0-.819.819V17.57a.819.819,0,0,0,.819.819H15.341a.819.819,0,0,1,.516.18l4.81,3.852V19.209a.819.819,0,0,1,.819-.819h1.639a.819.819,0,0,0,.819-.819V4.458a.819.819,0,0,0-.819-.819Z" transform="translate(-1 5.267)" fill="#838282"/>
    <rect id="Rectangle_121" data-name="Rectangle 121" width="1.836" height="1.836" transform="translate(11.375 15.386)" fill="#838282"/>
    <rect id="Rectangle_122" data-name="Rectangle 122" width="1.836" height="1.836" transform="translate(5.687 15.386)" fill="#838282"/>
    <rect id="Rectangle_123" data-name="Rectangle 123" width="1.836" height="1.836" transform="translate(17.062 15.386)" fill="#838282"/>
  </g>
</svg>
