<svg xmlns="http://www.w3.org/2000/svg" width="41.075" height="41.075" viewBox="0 0 41.075 41.075">
  <g id="Group_16081" data-name="Group 16081" transform="translate(-168.25 -448.925)">
    <g id="Group_16080" data-name="Group 16080">
      <g id="Group_16079" data-name="Group 16079">
        <g id="Group_16078" data-name="Group 16078">
          <g id="Group_16077" data-name="Group 16077">
            <g id="Group_16076" data-name="Group 16076">
              <g id="Group_16075" data-name="Group 16075">
                <g id="Group_16074" data-name="Group 16074">
                  <g id="Group_16073" data-name="Group 16073">
                    <g id="Group_16072" data-name="Group 16072">
                      <g id="Group_16071" data-name="Group 16071">
                        <path id="iconfinder_Info_2_372889" d="M20.538,0A20.538,20.538,0,1,0,41.075,20.538,20.537,20.537,0,0,0,20.538,0Zm1.371,29.9c0,.853-.543,1.011-.844,1.033H20.054a.8.8,0,0,1-.856-.827v-13.1c0-.976,1.07-.986,1.07-.986h.484a1.111,1.111,0,0,1,1.156,1.213ZM20.491,13.5a1.611,1.611,0,0,1-1.632-1.664,1.651,1.651,0,0,1,1.693-1.693,1.608,1.608,0,0,1,1.663,1.693A1.6,1.6,0,0,1,20.491,13.5Z" transform="translate(168.25 448.925)" fill="#3593ff"/>
                      </g>
                    </g>
                  </g>
                </g>
              </g>
            </g>
          </g>
        </g>
      </g>
    </g>
  </g>
</svg>
