<svg xmlns="http://www.w3.org/2000/svg" xmlns:xlink="http://www.w3.org/1999/xlink" width="457" height="457" viewBox="0 0 457 457">
  <defs>
    <filter id="PROFIL_buyer" x="0" y="0" width="457" height="457" filterUnits="userSpaceOnUse">
      <feOffset dy="10" input="SourceAlpha"/>
      <feGaussianBlur stdDeviation="49.5" result="blur"/>
      <feFlood flood-opacity="0.051"/>
      <feComposite operator="in" in2="blur"/>
      <feComposite in="SourceGraphic"/>
    </filter>
    <filter id="Path_1103" x="247.5" y="247.5" width="61" height="61" filterUnits="userSpaceOnUse">
      <feOffset dy="1" input="SourceAlpha"/>
      <feGaussianBlur stdDeviation="3" result="blur-2"/>
      <feFlood flood-opacity="0.161"/>
      <feComposite operator="in" in2="blur-2"/>
      <feComposite in="SourceGraphic"/>
    </filter>
  </defs>
  <g id="Group_16098" data-name="Group 16098" transform="translate(40.5 -60.5)">
    <g id="Group_16076" data-name="Group 16076" transform="translate(1 -10)">
      <g id="Group_16128" data-name="Group 16128">
        <g id="Group_16127" data-name="Group 16127">
          <g id="Group_16126" data-name="Group 16126">
            <g id="Group_16125" data-name="Group 16125">
              <g id="Group_16124" data-name="Group 16124">
                <g id="Group_16123" data-name="Group 16123">
                  <g id="Group_16122" data-name="Group 16122">
                    <g id="Group_16121" data-name="Group 16121">
                      <g id="Group_16120" data-name="Group 16120">
                        <g id="Group_16119" data-name="Group 16119">
                          <g id="Group_16118" data-name="Group 16118">
                            <g id="Group_16117" data-name="Group 16117">
                              <g id="Group_16116" data-name="Group 16116">
                                <g id="Group_16115" data-name="Group 16115">
                                  <g id="Group_16114" data-name="Group 16114">
                                    <g id="Group_16113" data-name="Group 16113">
                                      <g id="Group_16112" data-name="Group 16112">
                                        <g id="Group_16111" data-name="Group 16111">
                                          <g id="Group_16110" data-name="Group 16110">
                                            <g id="Group_16109" data-name="Group 16109">
                                              <g id="Group_16108" data-name="Group 16108">
                                                <g id="Group_16107" data-name="Group 16107">
                                                  <g id="Group_16106" data-name="Group 16106">
                                                    <g id="Group_16105" data-name="Group 16105">
                                                      <g id="Group_16104" data-name="Group 16104">
                                                        <g id="Group_16103" data-name="Group 16103">
                                                          <g id="Group_16102" data-name="Group 16102">
                                                            <g id="Group_16101" data-name="Group 16101">
                                                              <g id="Group_16100" data-name="Group 16100">
                                                                <ellipse id="Ellipse_50" data-name="Ellipse 50" cx="30.518" cy="36.622" rx="30.518" ry="36.622" transform="translate(157.615 227.83)" fill="#dddada"/>
                                                                <path id="Path_1200" data-name="Path 1200" d="M136.8,144.384c-5.493-10.987-15.87-20.142-29.3-25.635-3.662-1.221-7.935-1.221-10.987.61a37.47,37.47,0,0,1-39.063,0c-3.052-1.221-7.324-1.831-10.987,0-13.428,5.493-23.8,14.649-29.3,25.635-4.273,7.935,2.441,17.09,11.6,17.09H125.2C134.356,162.085,141.07,152.929,136.8,144.384Z" transform="translate(111.152 187.818)" fill="#dddada"/>
                                                                <g transform="matrix(1, 0, 0, 1, -41.5, 70.5)" filter="url(#PROFIL_buyer)">
                                                                  <g id="PROFIL_buyer-2" data-name="PROFIL_buyer" transform="translate(148.5 138.5)" fill="none" stroke="#ff0202" stroke-width="2">
                                                                    <circle cx="80" cy="80" r="80" stroke="none"/>
                                                                    <circle cx="80" cy="80" r="79" fill="none"/>
                                                                  </g>
                                                                </g>
                                                                <g transform="matrix(1, 0, 0, 1, -41.5, 70.5)" filter="url(#Path_1103)">
                                                                  <g id="Path_1103-2" data-name="Path 1103" transform="translate(256.5 255.5)" fill="#f899c0">
                                                                    <path d="M 21.5 42 C 18.73208045959473 42 16.0474796295166 41.4581184387207 13.52077960968018 40.38941955566406 C 11.07977962493896 39.35696029663086 8.887319564819336 37.87870025634766 7.004310131072998 35.99568939208984 C 5.121300220489502 34.11267852783203 3.64303994178772 31.92021942138672 2.610579967498779 29.47921943664551 C 1.541880011558533 26.9525203704834 1 24.26791954040527 1 21.5 C 1 18.73208045959473 1.541880011558533 16.0474796295166 2.610579967498779 13.52077960968018 C 3.64303994178772 11.07977962493896 5.121300220489502 8.887319564819336 7.004310131072998 7.004310131072998 C 8.887319564819336 5.121300220489502 11.07977962493896 3.64303994178772 13.52077960968018 2.610579967498779 C 16.0474796295166 1.541880011558533 18.73208045959473 1 21.5 1 C 24.26791954040527 1 26.9525203704834 1.541880011558533 29.47921943664551 2.610579967498779 C 31.92021942138672 3.64303994178772 34.11267852783203 5.121300220489502 35.99568939208984 7.004310131072998 C 37.87870025634766 8.887319564819336 39.35696029663086 11.07977962493896 40.38941955566406 13.52077960968018 C 41.4581184387207 16.0474796295166 42 18.73208045959473 42 21.5 C 42 24.26791954040527 41.4581184387207 26.9525203704834 40.38941955566406 29.47921943664551 C 39.35696029663086 31.92021942138672 37.87870025634766 34.11267852783203 35.99568939208984 35.99568939208984 C 34.11267852783203 37.87870025634766 31.92021942138672 39.35696029663086 29.47921943664551 40.38941955566406 C 26.9525203704834 41.4581184387207 24.26791954040527 42 21.5 42 Z" stroke="none"/>
                                                                    <path d="M 21.5 2 C 18.86664009094238 2 16.31310081481934 2.515300750732422 13.91032981872559 3.531589508056641 C 11.58852958679199 4.513629913330078 9.502910614013672 5.919929504394531 7.711418151855469 7.711418151855469 C 5.919929504394531 9.502910614013672 4.513629913330078 11.58852958679199 3.531589508056641 13.91032981872559 C 2.515300750732422 16.31310081481934 2 18.86664009094238 2 21.5 C 2 24.13335990905762 2.515300750732422 26.68689918518066 3.531589508056641 29.08967018127441 C 4.513629913330078 31.41147041320801 5.919929504394531 33.49708938598633 7.711418151855469 35.28858184814453 C 9.502910614013672 37.08007049560547 11.58852958679199 38.48637008666992 13.91032981872559 39.46841049194336 C 16.31310081481934 40.48469924926758 18.86664009094238 41 21.5 41 C 24.13335990905762 41 26.68689918518066 40.48469924926758 29.08967018127441 39.46841049194336 C 31.41147041320801 38.48637008666992 33.49708938598633 37.08007049560547 35.28858184814453 35.28858184814453 C 37.08007049560547 33.49708938598633 38.48637008666992 31.41147041320801 39.46841049194336 29.08967018127441 C 40.48469924926758 26.68689918518066 41 24.13335990905762 41 21.5 C 41 18.86664009094238 40.48469924926758 16.31310081481934 39.46841049194336 13.91032981872559 C 38.48637008666992 11.58852958679199 37.08007049560547 9.502910614013672 35.28858184814453 7.711418151855469 C 33.49708938598633 5.919929504394531 31.41147041320801 4.513629913330078 29.08967018127441 3.531589508056641 C 26.68689918518066 2.515300750732422 24.13335990905762 2 21.5 2 M 21.5 0 C 33.37411880493164 0 43 9.625881195068359 43 21.5 C 43 33.37411880493164 33.37411880493164 43 21.5 43 C 9.625881195068359 43 0 33.37411880493164 0 21.5 C 0 9.625881195068359 9.625881195068359 0 21.5 0 Z" stroke="none" fill="#fff"/>
                                                                  </g>
                                                                </g>
                                                                <path id="Path_428" data-name="Path 428" d="M42.939,24.04,35.25,16.35a1.811,1.811,0,0,0-2.588,0l-7.69,7.689a1.83,1.83,0,1,0,2.588,2.588l4.591-4.591V35.282a1.821,1.821,0,0,0,3.641,0V22.037l4.59,4.591a1.819,1.819,0,1,0,2.556-2.588Z" transform="translate(202.48 320.83)" fill="#fff"/>
                                                              </g>
                                                            </g>
                                                          </g>
                                                        </g>
                                                      </g>
                                                    </g>
                                                  </g>
                                                </g>
                                              </g>
                                            </g>
                                          </g>
                                        </g>
                                      </g>
                                    </g>
                                  </g>
                                </g>
                              </g>
                            </g>
                          </g>
                        </g>
                      </g>
                    </g>
                  </g>
                </g>
              </g>
            </g>
          </g>
        </g>
      </g>
    </g>
  </g>
</svg>
