<svg xmlns="http://www.w3.org/2000/svg" xmlns:xlink="http://www.w3.org/1999/xlink" width="457" height="457" viewBox="0 0 457 457">
  <defs>
    <filter id="PROFIL_buyer" x="20" y="19" width="419" height="419" filterUnits="userSpaceOnUse">
      <feOffset dy="10" input="SourceAlpha"/>
      <feGaussianBlur stdDeviation="49.5" result="blur"/>
      <feFlood flood-opacity="0.051"/>
      <feComposite operator="in" in2="blur"/>
      <feComposite in="SourceGraphic"/>
    </filter>
    <clipPath id="clip-path">
      <g transform="matrix(1, 0, 0, 1, 0, 0)" filter="url(#PROFIL_buyer)">
        <circle id="PROFIL_buyer-2" data-name="PROFIL_buyer" cx="61" cy="61" r="61" transform="translate(192 -2004.73)" fill="none" stroke="#f899c0" stroke-width="2"/>
      </g>
    </clipPath>
    <filter id="PROFIL_buyer-3" x="0" y="0" width="457" height="457" filterUnits="userSpaceOnUse">
      <feOffset dy="10" input="SourceAlpha"/>
      <feGaussianBlur stdDeviation="49.5" result="blur-2"/>
      <feFlood flood-opacity="0.051"/>
      <feComposite operator="in" in2="blur-2"/>
      <feComposite in="SourceGraphic"/>
    </filter>
  </defs>
  <g id="Group_16187" data-name="Group 16187" transform="translate(41.5 -70.5)">
    <g id="Group_16186" data-name="Group 16186">
      <g id="Group_16185" data-name="Group 16185">
        <g id="Group_16184" data-name="Group 16184">
          <g id="Group_16183" data-name="Group 16183">
            <g id="Group_16182" data-name="Group 16182">
              <g id="Mask_Group_1" data-name="Mask Group 1" transform="translate(-65 2232.733)" clip-path="url(#clip-path)">
                <g id="icons" transform="translate(192 -2004.903)">
                  <g id="user" transform="translate(0 0)">
                    <ellipse id="Ellipse_50" data-name="Ellipse 50" cx="30.518" cy="36.622" rx="30.518" ry="36.622" transform="translate(30.615)" fill="#dddada"/>
                    <path id="Path_1200" data-name="Path 1200" d="M136.8,144.384c-5.493-10.987-15.87-20.142-29.3-25.635-3.662-1.221-7.935-1.221-10.987.61a37.47,37.47,0,0,1-39.063,0c-3.052-1.221-7.324-1.831-10.987,0-13.428,5.493-23.8,14.649-29.3,25.635-4.273,7.935,2.441,17.09,11.6,17.09H125.2C134.356,162.085,141.07,152.929,136.8,144.384Z" transform="translate(-15.848 -40.012)" fill="#dddada"/>
                  </g>
                </g>
              </g>
              <g transform="matrix(1, 0, 0, 1, -41.5, 70.5)" filter="url(#PROFIL_buyer-3)">
                <g id="PROFIL_buyer-4" data-name="PROFIL_buyer" transform="translate(148.5 138.5)" fill="none" stroke="#ff0202" stroke-width="2">
                  <circle cx="80" cy="80" r="80" stroke="none"/>
                  <circle cx="80" cy="80" r="79" fill="none"/>
                </g>
              </g>
            </g>
          </g>
        </g>
      </g>
    </g>
  </g>
</svg>
