<svg xmlns="http://www.w3.org/2000/svg" width="27.648" height="24.018" viewBox="0 0 27.648 24.018">
  <g id="Group_16082" data-name="Group 16082" transform="translate(0 0)">
    <path id="Path_1136" data-name="Path 1136" d="M27.8,14.088a.924.924,0,0,1-.536-.176l-12.4-8.851-12.4,8.851a.924.924,0,0,1-1.072-1.5L14.329,3.176a.924.924,0,0,1,1.072,0l12.935,9.239a.924.924,0,0,1-.536,1.672Z" transform="translate(-1.07 -3.005)" fill="#f899c0"/>
    <path id="Path_1138" data-name="Path 1138" d="M23.4,27.935h-4.62a.924.924,0,0,1-.924-.924V20.544H12.316v6.468a.924.924,0,0,1-.924.924H6.772A2.772,2.772,0,0,1,4,25.163V15.924a.924.924,0,0,1,1.848,0v9.239a.924.924,0,0,0,.924.924h3.7V19.62a.924.924,0,0,1,.924-.924h7.392a.924.924,0,0,1,.924.924v6.468h3.7a.924.924,0,0,0,.924-.924V15.924a.924.924,0,1,1,1.848,0v9.239A2.772,2.772,0,0,1,23.4,27.935Z" transform="translate(-1.293 -3.917)" fill="#f899c0"/>
  </g>
</svg>
