<svg xmlns="http://www.w3.org/2000/svg" width="26.388" height="22.946" viewBox="0 0 26.388 22.946">
  <g id="Group_16180" data-name="Group 16180" transform="translate(0 -7.267)">
    <path id="Path_1156" data-name="Path 1156" d="M78.039,46.842h0l-7.512-.06a4.694,4.694,0,0,1-4.7-4.7v-6.2a4.569,4.569,0,0,1,1.3-3.247,8.061,8.061,0,0,0,1.8-5.5v-.02a3.124,3.124,0,0,1,.662-2.35,2.486,2.486,0,0,1,1.7-.849,3.646,3.646,0,0,1,2.622.9A6.03,6.03,0,0,1,75.4,26.632a6.868,6.868,0,0,1,.779,2.545,7.486,7.486,0,0,1-.066,2.076l3.307.047a4.64,4.64,0,0,1,3.392,1.446,4.994,4.994,0,0,1,1.357,3.2.327.327,0,0,1,0,.077,24.621,24.621,0,0,1-.476,4.351,13.075,13.075,0,0,1-1.152,3.366c-1.357,2.563-3.2,3.1-4.5,3.1ZM70.581,27.029h0a10.1,10.1,0,0,1-.181,2.426,8.894,8.894,0,0,1-2.052,4.3l-.035.035a2.9,2.9,0,0,0-.831,2.1v6.2a3.048,3.048,0,0,0,3.044,3.045h0l7.506.059a3.487,3.487,0,0,0,3.036-2.218,16.363,16.363,0,0,0,1.437-6.948,3.326,3.326,0,0,0-.889-2.11l-.024-.023a2.932,2.932,0,0,0-2.187-.927h-.012L75.049,32.9a.826.826,0,0,1-.772-1.09,5.928,5.928,0,0,0,.259-2.447h0a4.844,4.844,0,0,0-1.658-3.25,2.043,2.043,0,0,0-1.416-.543H71.43a.838.838,0,0,0-.58.28,1.584,1.584,0,0,0-.261,1.156v.021Zm0,0v.029a.08.08,0,0,0,0-.026Z" transform="translate(-57.784 -16.631)" fill="#838282"/>
    <path id="Path_1157" data-name="Path 1157" d="M15.9,101.2h-.416a3.015,3.015,0,0,1-3.015-3.015V91.395a3.015,3.015,0,0,1,3.015-3.015H15.9a3.015,3.015,0,0,1,3.015,3.015v6.8A3.015,3.015,0,0,1,15.9,101.2Zm-.416-11.164a1.357,1.357,0,0,0-1.357,1.357v6.8a1.357,1.357,0,0,0,1.357,1.357H15.9a1.357,1.357,0,0,0,1.357-1.357v-6.8A1.357,1.357,0,0,0,15.9,90.038Z" transform="translate(-12.47 -71.393)" fill="#838282"/>
  </g>
</svg>
