<svg xmlns="http://www.w3.org/2000/svg" width="23.6" height="24.018" viewBox="0 0 23.6 24.018">
  <g id="Group_499" data-name="Group 499" transform="translate(0)">
    <g id="Group_500" data-name="Group 500" transform="translate(0 0)">
      <g id="_107-chat-1" data-name="107-chat-1" transform="translate(0)">
        <g id="Group_498" data-name="Group 498" transform="translate(6.722 7.528)">
          <path id="Path_1131" data-name="Path 1131" d="M130.47,133.45h-8.365a.9.9,0,1,1,0-1.792h8.365a.9.9,0,1,1,0,1.792Z" transform="translate(-121.209 -131.658)" fill="#838282"/>
          <path id="Path_1132" data-name="Path 1132" d="M130.47,196.144h-8.365a.9.9,0,0,1,0-1.792h8.365a.9.9,0,1,1,0,1.792Z" transform="translate(-121.209 -190.767)" fill="#838282"/>
          <path id="Path_1133" data-name="Path 1133" d="M130.47,258.838h-8.365a.9.9,0,0,1,0-1.792h8.365a.9.9,0,1,1,0,1.792Z" transform="translate(-121.209 -249.876)" fill="#838282"/>
        </g>
        <path id="Path_1134" data-name="Path 1134" d="M5.33,24.018a.954.954,0,0,1-.717-.329.888.888,0,0,1-.12-.9L6.107,19.03a11.539,11.539,0,0,1-1.643-2.9A11.81,11.81,0,1,1,15.457,23.6a11.285,11.285,0,0,1-3.884-.657L5.479,24.018ZM15.457,1.792A10.008,10.008,0,0,0,5.449,11.8a10.121,10.121,0,0,0,.687,3.645,9.546,9.546,0,0,0,1.7,2.808.885.885,0,0,1,.149.926L6.794,21.957l4.72-.836a.886.886,0,0,1,.478.06,9.516,9.516,0,0,0,3.465.627,10.008,10.008,0,0,0,0-20.015Z" transform="translate(-3.657 0)" fill="#838282"/>
      </g>
    </g>
  </g>
</svg>
