<svg xmlns="http://www.w3.org/2000/svg" width="24.414" height="21" viewBox="0 0 24.414 21">
  <g id="iconfinder_25-Promotion_and_Notification_6330651" transform="translate(-9 -13.5)">
    <rect id="Rectangle_1813" data-name="Rectangle 1813" width="2" height="16" rx="1" transform="translate(27 14.5)" fill="none" stroke="#87879d" stroke-miterlimit="10" stroke-width="2"/>
    <path id="Path_1467" data-name="Path 1467" d="M25.041,20.116H24.55a.564.564,0,0,0-.55.577v6.346a.564.564,0,0,0,.55.577h.492l.159.025L34,30.5V17.231L25.2,20.09Z" transform="translate(-7 -1.116)" fill="none" stroke="#87879d" stroke-miterlimit="10" stroke-width="2"/>
    <path id="Path_1468" data-name="Path 1468" d="M12.441,24H17v6.5H12.441A2.441,2.441,0,0,1,10,28.059V26.441A2.442,2.442,0,0,1,12.442,24Z" transform="translate(0 -4.5)" fill="none" stroke="#87879d" stroke-miterlimit="10" stroke-width="2"/>
    <path id="Path_1469" data-name="Path 1469" d="M18.038,44.5H15.394A.4.4,0,0,1,15,44.105V37h2.5v5.385a.4.4,0,0,0,.06.209l.813,1.3a.395.395,0,0,1-.335.605Z" transform="translate(-2.5 -11)" fill="none" stroke="#87879d" stroke-miterlimit="10" stroke-width="2"/>
    <line id="Line_116" data-name="Line 116" x2="1" transform="translate(31 22.5)" fill="none" stroke="#87879d" stroke-linecap="round" stroke-miterlimit="10" stroke-width="2"/>
    <line id="Line_117" data-name="Line 117" y1="1" x2="1" transform="translate(31 18.5)" fill="none" stroke="#87879d" stroke-linecap="round" stroke-miterlimit="10" stroke-width="2"/>
    <line id="Line_118" data-name="Line 118" x2="1" y2="1" transform="translate(31 25.5)" fill="none" stroke="#87879d" stroke-linecap="round" stroke-miterlimit="10" stroke-width="2"/>
  </g>
</svg>
