<svg xmlns="http://www.w3.org/2000/svg" width="29" height="23.732" viewBox="0 0 29 23.732">
  <g id="_79-users" data-name="79-users" transform="translate(0 -2.868)">
    <circle id="Ellipse_100" data-name="Ellipse 100" cx="4.5" cy="4.5" r="4.5" transform="translate(10 7.599)" fill="none" stroke="#87879d" stroke-linecap="round" stroke-linejoin="round" stroke-width="2"/>
    <path id="Path_1462" data-name="Path 1462" d="M21.6,27.3A6.3,6.3,0,0,0,9,27.3Z" transform="translate(-0.8 -1.7)" fill="none" stroke="#87879d" stroke-linecap="round" stroke-linejoin="round" stroke-width="2"/>
    <path id="Path_1463" data-name="Path 1463" d="M23.6,13A4.5,4.5,0,1,0,20,5.8" transform="translate(-1.9 0)" fill="none" stroke="#87879d" stroke-linecap="round" stroke-linejoin="round" stroke-width="2"/>
    <path id="Path_1464" data-name="Path 1464" d="M24.9,23.3h5.4A6.3,6.3,0,0,0,24,17" transform="translate(-2.3 -1.3)" fill="none" stroke="#87879d" stroke-linecap="round" stroke-linejoin="round" stroke-width="2"/>
    <path id="Path_1465" data-name="Path 1465" d="M11.1,5.8A4.5,4.5,0,1,0,7.5,13" transform="translate(-0.2)" fill="none" stroke="#87879d" stroke-linecap="round" stroke-linejoin="round" stroke-width="2"/>
    <path id="Path_1466" data-name="Path 1466" d="M7.3,17A6.3,6.3,0,0,0,1,23.3H6.4" transform="translate(0 -1.3)" fill="none" stroke="#87879d" stroke-linecap="round" stroke-linejoin="round" stroke-width="2"/>
  </g>
</svg>
