<svg xmlns="http://www.w3.org/2000/svg" width="19.218" height="20.816" viewBox="0 0 19.218 20.816">
  <g id="Group_16084" data-name="Group 16084" transform="translate(0)">
    <path id="Path_1139" data-name="Path 1139" d="M22.415,22.414H4.8a.8.8,0,0,1-.713-1.161,14.523,14.523,0,0,0,1.513-6.4V12.006a8.006,8.006,0,1,1,16.012,0v2.826a14.523,14.523,0,0,0,1.513,6.4.8.8,0,0,1-.713,1.177Zm-16.373-1.6H21.174a16.124,16.124,0,0,1-1.161-5.981V12.006a6.4,6.4,0,0,0-12.81,0v2.826a16.124,16.124,0,0,1-1.161,5.981Z" transform="translate(-4.003 -1.598)" fill="#010101"/>
    <path id="Path_1142" data-name="Path 1142" d="M25.6,4.2a1.6,1.6,0,1,1,1.6-1.6A1.6,1.6,0,0,1,25.6,4.2Zm0-1.6Zm0,0Zm0,0Zm0,0Zm0,0Zm0,0Zm0,0Zm0,0Z" transform="translate(-7.99 -1)" fill="#ff0202"/>
  </g>
</svg>
