<svg xmlns="http://www.w3.org/2000/svg" width="22.8" height="29.706" viewBox="0 0 22.8 29.706">
  <g id="iconfinder_28-Orders_and_Check_Lists_6330643" transform="translate(-15 -9.05)">
    <path id="Path_1446" data-name="Path 1446" d="M35.491,15H31.758v.719a.542.542,0,0,1-.541.541H21.584a.542.542,0,0,1-.541-.541V15H17.31A1.293,1.293,0,0,0,16,16.277V38.305a1.293,1.293,0,0,0,1.31,1.277H35.491a1.293,1.293,0,0,0,1.31-1.277V16.277A1.293,1.293,0,0,0,35.491,15Z" transform="translate(0 -1.827)" fill="none" stroke="#87879d" stroke-miterlimit="10" stroke-width="2"/>
    <path id="Path_1447" data-name="Path 1447" d="M34.075,11.913H30.933v-.234a1.594,1.594,0,0,0-1.185-1.568A1.57,1.57,0,0,0,27.782,11.6v.308H24.64a.64.64,0,0,0-.64.64v1.24a.64.64,0,0,0,.64.64h9.435a.64.64,0,0,0,.64-.64v-1.24a.64.64,0,0,0-.64-.64Z" transform="translate(-2.958)" fill="none" stroke="#87879d" stroke-linecap="round" stroke-miterlimit="10" stroke-width="2"/>
    <path id="Path_1448" data-name="Path 1448" d="M25,24H36.346" transform="translate(-3.327 -5.154)" fill="none" stroke="#87879d" stroke-linecap="round" stroke-miterlimit="10" stroke-width="2"/>
    <path id="Path_1449" data-name="Path 1449" d="M19,21.891l.63.63L21.521,20" transform="translate(-1.109 -3.675)" fill="none" stroke="#87879d" stroke-linecap="round" stroke-miterlimit="10" stroke-width="2"/>
    <path id="Path_1450" data-name="Path 1450" d="M25,32H36.346" transform="translate(-3.327 -8.111)" fill="none" stroke="#87879d" stroke-linecap="round" stroke-miterlimit="10" stroke-width="2"/>
    <path id="Path_1451" data-name="Path 1451" d="M19,29.891l.63.63L21.521,28" transform="translate(-1.109 -6.633)" fill="none" stroke="#87879d" stroke-linecap="round" stroke-miterlimit="10" stroke-width="2"/>
    <path id="Path_1452" data-name="Path 1452" d="M25,40H36.346" transform="translate(-3.327 -11.069)" fill="none" stroke="#87879d" stroke-linecap="round" stroke-miterlimit="10" stroke-width="2"/>
    <path id="Path_1453" data-name="Path 1453" d="M19,37.891l.63.63L21.521,36" transform="translate(-1.109 -9.59)" fill="none" stroke="#87879d" stroke-linecap="round" stroke-miterlimit="10" stroke-width="2"/>
    <path id="Path_1454" data-name="Path 1454" d="M25,48H36.346" transform="translate(-3.327 -14.026)" fill="none" stroke="#87879d" stroke-linecap="round" stroke-miterlimit="10" stroke-width="2"/>
    <path id="Path_1455" data-name="Path 1455" d="M19,45.891l.63.63L21.521,44" transform="translate(-1.109 -12.548)" fill="none" stroke="#87879d" stroke-linecap="round" stroke-miterlimit="10" stroke-width="2"/>
  </g>
</svg>
