<svg xmlns="http://www.w3.org/2000/svg" width="24" height="24.001" viewBox="0 0 24 24.001">
  <g id="iconfinder_06-Money_Wallet_6330645" transform="translate(-8.999 -8.999)">
    <path id="Path_1456" data-name="Path 1456" d="M19,18.5V10.532A.55.55,0,0,1,19.565,10H30.428a.557.557,0,0,1,.571.538V18.5" transform="translate(-4.501)" fill="none" stroke="#87879d" stroke-linecap="square" stroke-miterlimit="10" stroke-width="2"/>
    <rect id="Rectangle_1812" data-name="Rectangle 1812" width="6" height="5" rx="2" transform="translate(25.999 22.998)" fill="none" stroke="#87879d" stroke-miterlimit="10" stroke-width="2"/>
    <ellipse id="Ellipse_99" data-name="Ellipse 99" cx="1" cy="0.5" rx="1" ry="0.5" transform="translate(26.999 24.998)" fill="none" stroke="#87879d" stroke-miterlimit="10" stroke-width="2"/>
    <line id="Line_102" data-name="Line 102" x2="1" transform="translate(12.999 20.998)" fill="none" stroke="#87879d" stroke-linecap="round" stroke-miterlimit="10" stroke-width="2"/>
    <path id="Path_1457" data-name="Path 1457" d="M31,36.237v1.935c0,.041,0,.08,0,.12s-.005.079-.009.118-.009.078-.015.116-.013.076-.021.114-.017.076-.027.112-.021.074-.032.111-.024.072-.038.108-.028.071-.043.106-.031.069-.05.1-.035.067-.053.1l-.058.1c-.021.035-.041.063-.062.094s-.044.062-.067.091-.047.059-.071.087-.05.057-.076.084-.052.055-.08.081-.055.05-.083.077-.058.05-.087.073-.06.047-.091.069-.062.044-.094.065-.065.041-.1.06l-.1.056c-.034.018-.069.035-.1.05s-.07.032-.107.047-.072.029-.109.042L29.3,40.4c-.038.012-.076.021-.114.031s-.077.019-.117.026-.079.015-.118.02-.08.011-.121.015-.081.007-.122.009-.082,0-.124,0H12.412c-.042,0-.083,0-.124,0s-.082-.005-.122-.009-.081-.009-.121-.015-.079-.013-.118-.02-.078-.016-.117-.026l-.114-.031c-.038-.011-.075-.024-.112-.037s-.073-.027-.109-.042-.072-.03-.107-.047l-.1-.05c-.034-.016-.068-.037-.1-.056l-.1-.06c-.034-.021-.063-.042-.094-.065s-.061-.045-.091-.069-.059-.05-.087-.073a1.087,1.087,0,0,1-.083-.077c-.027-.027-.054-.053-.08-.081s-.05-.055-.076-.084a1.121,1.121,0,0,1-.071-.087c-.021-.029-.045-.061-.067-.091s-.042-.062-.062-.094-.039-.064-.058-.1-.036-.066-.053-.1-.033-.069-.05-.1-.029-.07-.043-.106-.026-.071-.038-.108-.022-.073-.032-.111-.019-.074-.027-.112-.015-.076-.021-.114-.011-.077-.015-.116S10,38.331,10,38.292s0-.079,0-.12V29.326c0-.04,0-.08,0-.12s.005-.079.009-.118.009-.078.016-.116.013-.076.021-.114.017-.075.027-.112.021-.074.032-.111.024-.072.038-.108.028-.071.043-.106.031-.069.05-.1.034-.067.053-.1l.058-.1c.021-.035.041-.063.063-.094s.044-.061.067-.091.047-.059.071-.087.05-.057.076-.084.052-.055.08-.081.055-.05.083-.077.058-.05.087-.073.06-.047.091-.069.063-.044.094-.065.064-.041.1-.06l.1-.056c.033-.018.068-.035.1-.05s.07-.032.107-.046.072-.029.109-.042L11.7,27.1c.038-.012.076-.021.114-.031s.077-.018.117-.026.078-.015.118-.021.08-.011.121-.015S12.25,27,12.291,27s.082,0,.124,0H28.586c.041,0,.083,0,.124,0s.082,0,.122.009.081.009.121.015.079.012.118.021.079.016.117.026l.114.031c.038.011.075.023.112.036s.073.027.109.042.072.03.107.046l.1.05c.034.017.068.036.1.056l.1.06c.034.021.063.042.094.065s.061.045.091.069.059.05.087.073a1.088,1.088,0,0,1,.083.077c.027.027.054.053.08.081s.05.055.076.084a1.12,1.12,0,0,1,.071.087c.022.029.045.06.067.091s.042.062.062.094.039.064.058.1.036.066.053.1.033.068.05.1.029.07.043.106.027.071.038.108.022.073.032.111.019.074.027.112.015.076.021.114.011.077.015.116.007.078.009.118,0,.079,0,.12v2.211" transform="translate(0 -8.499)" fill="none" stroke="#87879d" stroke-miterlimit="10" stroke-width="2"/>
    <line id="Line_103" data-name="Line 103" x2="1" transform="translate(15.999 20.998)" fill="none" stroke="#87879d" stroke-linecap="round" stroke-miterlimit="10" stroke-width="2"/>
    <line id="Line_104" data-name="Line 104" x2="1" transform="translate(18.999 20.998)" fill="none" stroke="#87879d" stroke-linecap="round" stroke-miterlimit="10" stroke-width="2"/>
    <line id="Line_105" data-name="Line 105" x2="1" transform="translate(21.999 20.998)" fill="none" stroke="#87879d" stroke-linecap="round" stroke-miterlimit="10" stroke-width="2"/>
    <line id="Line_106" data-name="Line 106" x2="1" transform="translate(27.999 20.998)" fill="none" stroke="#87879d" stroke-linecap="round" stroke-miterlimit="10" stroke-width="2"/>
    <line id="Line_107" data-name="Line 107" x2="1" transform="translate(24.999 20.998)" fill="none" stroke="#87879d" stroke-linecap="round" stroke-miterlimit="10" stroke-width="2"/>
    <line id="Line_108" data-name="Line 108" x2="1" transform="translate(12.999 29.998)" fill="none" stroke="#87879d" stroke-linecap="round" stroke-miterlimit="10" stroke-width="2"/>
    <line id="Line_109" data-name="Line 109" x2="1" transform="translate(15.999 29.998)" fill="none" stroke="#87879d" stroke-linecap="round" stroke-miterlimit="10" stroke-width="2"/>
    <line id="Line_110" data-name="Line 110" x2="1" transform="translate(18.999 29.998)" fill="none" stroke="#87879d" stroke-linecap="round" stroke-miterlimit="10" stroke-width="2"/>
    <line id="Line_111" data-name="Line 111" x2="1" transform="translate(21.999 29.998)" fill="none" stroke="#87879d" stroke-linecap="round" stroke-miterlimit="10" stroke-width="2"/>
    <line id="Line_112" data-name="Line 112" x2="1" transform="translate(27.999 29.998)" fill="none" stroke="#87879d" stroke-linecap="round" stroke-miterlimit="10" stroke-width="2"/>
    <line id="Line_113" data-name="Line 113" x2="1" transform="translate(24.999 29.998)" fill="none" stroke="#87879d" stroke-linecap="round" stroke-miterlimit="10" stroke-width="2"/>
    <path id="Path_1458" data-name="Path 1458" d="M22,10v.747A1.753,1.753,0,0,1,20.247,12.5H20" transform="translate(-5.001 0)" fill="none" stroke="#87879d" stroke-linecap="square" stroke-miterlimit="10" stroke-width="2"/>
    <path id="Path_1459" data-name="Path 1459" d="M38,10v.747A1.753,1.753,0,0,0,39.753,12.5H40" transform="translate(-14.001 0)" fill="none" stroke="#87879d" stroke-linecap="square" stroke-miterlimit="10" stroke-width="2"/>
    <path id="Path_1460" data-name="Path 1460" d="M28,23v.75a.75.75,0,0,0,.75.75h0a.75.75,0,0,0,.75-.75h0a.75.75,0,0,1,.75-.75h0a.75.75,0,0,1,.75.75v.75" transform="translate(-9.001 -6.5)" fill="none" stroke="#87879d" stroke-linecap="square" stroke-miterlimit="10" stroke-width="2"/>
    <line id="Line_114" data-name="Line 114" x1="0.5" y2="0.008" transform="translate(18.499 17)" fill="none" stroke="#87879d" stroke-linecap="square" stroke-miterlimit="10" stroke-width="2"/>
    <line id="Line_115" data-name="Line 115" x2="0.5" y2="0.008" transform="translate(21.999 17)" fill="none" stroke="#87879d" stroke-linecap="square" stroke-miterlimit="10" stroke-width="2"/>
    <path id="Path_1461" data-name="Path 1461" d="M24.108,22.372a3.5,3.5,0,1,1,6.792-.024" transform="translate(-7.001 -4.008)" fill="none" stroke="#87879d" stroke-linecap="square" stroke-miterlimit="10" stroke-width="2"/>
  </g>
</svg>
