<svg xmlns="http://www.w3.org/2000/svg" width="25.528" height="24.018" viewBox="0 0 25.528 24.018">
  <g id="Group_16083" data-name="Group 16083" transform="translate(-1 -2)">
    <path id="Path_1146" data-name="Path 1146" d="M10.661,21.323a9.661,9.661,0,1,1,9.662-9.661A9.661,9.661,0,0,1,10.661,21.323Zm0-17.391a7.729,7.729,0,1,0,7.729,7.729A7.729,7.729,0,0,0,10.661,3.932Z" fill="#838282"/>
    <path id="Path_1148" data-name="Path 1148" d="M24.7,26.528a2.4,2.4,0,0,1-1.535-.552L17.505,21.3A2.4,2.4,0,1,1,20.576,17.6l5.614,4.678A2.4,2.4,0,0,1,24.7,26.528Z" transform="translate(-0.529 -0.509)" fill="#838282"/>
  </g>
</svg>
