<svg xmlns="http://www.w3.org/2000/svg" xmlns:xlink="http://www.w3.org/1999/xlink" width="47.645" height="47.645" viewBox="0 0 47.645 47.645">
  <defs>
    <filter id="Path_1103" x="0" y="0" width="47.645" height="47.645" filterUnits="userSpaceOnUse">
      <feOffset dy="1" input="SourceAlpha"/>
      <feGaussianBlur stdDeviation="3" result="blur"/>
      <feFlood flood-opacity="0.161"/>
      <feComposite operator="in" in2="blur"/>
      <feComposite in="SourceGraphic"/>
    </filter>
  </defs>
  <g id="Group_16182" data-name="Group 16182" transform="translate(-202.314 -215.846)">
    <g id="Group_16181" data-name="Group 16181">
      <g id="Group_16180" data-name="Group 16180">
        <g id="Group_16179" data-name="Group 16179">
          <g id="Group_492" data-name="Group 492" transform="translate(211.314 223.846)">
            <g transform="matrix(1, 0, 0, 1, -9, -8)" filter="url(#Path_1103)">
              <g id="Path_1103-2" data-name="Path 1103" transform="translate(9 8)" fill="#3593ff">
                <path d="M 14.82258605957031 28.64517593383789 C 11.13043594360352 28.64517593383789 7.659286022186279 27.20737648010254 5.048535823822021 24.59663581848145 C 2.437796115875244 21.98588562011719 0.9999960660934448 18.51473617553711 0.9999960660934448 14.82258605957031 C 0.9999960660934448 11.13043594360352 2.437796115875244 7.659286022186279 5.048535823822021 5.048535823822021 C 7.659286022186279 2.437796115875244 11.13043594360352 0.9999960660934448 14.82258605957031 0.9999960660934448 C 18.51473617553711 0.9999960660934448 21.98588562011719 2.437796115875244 24.59663581848145 5.048535823822021 C 27.20737648010254 7.659286022186279 28.64517593383789 11.13043594360352 28.64517593383789 14.82258605957031 C 28.64517593383789 18.51473617553711 27.20737648010254 21.98588562011719 24.59663581848145 24.59663581848145 C 21.98588562011719 27.20737648010254 18.51473617553711 28.64517593383789 14.82258605957031 28.64517593383789 Z" stroke="none"/>
                <path d="M 14.82258605957031 1.999996185302734 C 11.39754676818848 1.999996185302734 8.177516937255859 3.333776473999023 5.755645751953125 5.755645751953125 C 3.333776473999023 8.177516937255859 1.999996185302734 11.39754676818848 1.999996185302734 14.82258605957031 C 1.999996185302734 18.24761581420898 3.333776473999023 21.46765518188477 5.755645751953125 23.8895263671875 C 8.177516937255859 26.3113956451416 11.39754676818848 27.64517593383789 14.82258605957031 27.64517593383789 C 18.24761581420898 27.64517593383789 21.46765518188477 26.3113956451416 23.8895263671875 23.8895263671875 C 26.3113956451416 21.46765518188477 27.64517593383789 18.24761581420898 27.64517593383789 14.82258605957031 C 27.64517593383789 11.39754676818848 26.3113956451416 8.177516937255859 23.8895263671875 5.755645751953125 C 21.46765518188477 3.333776473999023 18.24761581420898 1.999996185302734 14.82258605957031 1.999996185302734 M 14.82258605957031 -3.814697265625e-06 C 23.00886535644531 -3.814697265625e-06 29.64517593383789 6.636295318603516 29.64517593383789 14.82258605957031 C 29.64517593383789 23.00886535644531 23.00886535644531 29.64517593383789 14.82258605957031 29.64517593383789 C 6.636295318603516 29.64517593383789 -3.814697265625e-06 23.00886535644531 -3.814697265625e-06 14.82258605957031 C -3.814697265625e-06 6.636295318603516 6.636295318603516 -3.814697265625e-06 14.82258605957031 -3.814697265625e-06 Z" stroke="none" fill="#fff"/>
              </g>
            </g>
            <path id="Path_428" data-name="Path 428" d="M37.19,21.483l-5.3-5.3a1.249,1.249,0,0,0-1.784,0l-5.3,5.3a1.262,1.262,0,1,0,1.784,1.784L29.752,20.1v9.131a1.255,1.255,0,0,0,2.51,0V20.1l3.165,3.165a1.254,1.254,0,1,0,1.762-1.784Z" transform="translate(-16.218 -8.473)" fill="#fff"/>
          </g>
        </g>
      </g>
    </g>
  </g>
</svg>
